<?xml version="1.0" standalone="no"?>
<!DOCTYPE svg PUBLIC "-//W3C//DTD SVG 20010904//EN"
 "http://www.w3.org/TR/2001/REC-SVG-20010904/DTD/svg10.dtd">
<svg version="1.0" xmlns="http://www.w3.org/2000/svg"
 width="200.000000pt" height="200.000000pt" viewBox="0 0 200.000000 200.000000"
 preserveAspectRatio="xMidYMid meet">
<metadata>
Created by potrace 1.14, written by Peter Selinger 2001-2017
</metadata>
<g transform="translate(0.000000,200.000000) scale(0.100000,-0.100000)"
fill="#000000" stroke="none">
<path d="M0 1000 l0 -1000 1000 0 1000 0 0 1000 0 1000 -1000 0 -1000 0 0
-1000z m645 640 c90 -13 151 -33 208 -70 42 -26 107 -100 107 -122 0 -4 -34
-25 -75 -45 l-75 -37 -32 31 c-55 53 -120 75 -218 75 -98 0 -144 -16 -184 -62
-36 -43 -35 -90 3 -128 34 -34 76 -46 221 -67 176 -26 242 -49 311 -112 62
-56 82 -104 83 -198 1 -105 -20 -159 -85 -220 -80 -75 -199 -114 -346 -115
-203 0 -357 72 -427 199 l-27 50 82 42 c73 36 83 39 91 24 58 -102 203 -159
346 -136 115 18 172 65 172 139 0 81 -59 124 -207 148 -207 34 -280 56 -349
109 -83 63 -111 218 -58 324 44 87 149 150 286 170 87 12 94 12 173 1z m1027
-340 c79 -29 150 -96 190 -178 31 -63 33 -73 33 -172 -1 -91 -4 -112 -26 -160
-32 -67 -68 -111 -124 -150 -115 -79 -317 -78 -417 1 l-38 30 0 -186 0 -185
-90 0 -90 0 0 505 0 505 84 0 84 0 7 -46 7 -46 31 30 c87 82 218 101 349 52z"/>
<path d="M1415 1133 c-72 -38 -105 -94 -105 -178 0 -93 51 -164 139 -194 91
-30 202 15 246 99 51 99 6 236 -92 276 -44 19 -151 17 -188 -3z"/>
</g>
</svg>
